<?xml version="1.0" standalone="no"?>
<!DOCTYPE svg PUBLIC "-//W3C//DTD SVG 20010904//EN"
 "http://www.w3.org/TR/2001/REC-SVG-20010904/DTD/svg10.dtd">
<svg version="1.0" xmlns="http://www.w3.org/2000/svg"
 width="300.000000pt" height="300.000000pt" viewBox="0 0 300.000000 300.000000"
 preserveAspectRatio="xMidYMid meet">

<g transform="translate(0.000000,300.000000) scale(0.100000,-0.100000)"
fill="#000000" stroke="none">
<path d="M1355 2869 c-434 -48 -815 -295 -1039 -672 -127 -213 -188 -441 -188
-702 0 -368 141 -705 401 -965 156 -156 335 -268 532 -334 277 -93 601 -93
874 -1 414 139 748 478 879 894 43 136 60 251 59 411 0 287 -72 526 -228 760
-230 346 -595 565 -1017 610 -110 11 -159 11 -273 -1z m415 -604 l44 -45 158
0 158 0 0 -90 0 -90 -635 0 -635 0 0 90 0 90 163 0 163 0 44 45 44 45 226 0
226 0 44 -45z m270 -874 c0 -371 -4 -569 -11 -588 -14 -38 -57 -83 -96 -99
-41 -18 -814 -21 -860 -3 -34 13 -80 55 -99 91 -12 22 -14 125 -14 593 l0 565
540 0 540 0 0 -559z"/>
</g>
</svg>
